. 
  
http://www.torrenting.com/        :     Greatest Movie Tracker on The Net!!!
 
http://www.Torrenting.com          :     Once & For all ;)


               www . Torrenting . Com 

(((((((((((((= Enjoy No RAR releases =))))))))))))))))))))


...................................NFO:....................................

.[img]http://img440.imageshack.us/img440/6313/rdk3cxr.png[/img]

SAMURAi Presents to you:
Freerunner.2011.BRRip.XviD.AC3-SAMURAi

Encode:
Source was good usual filters added

Source: Bluray
Video: 720X304 @bitrate 1777 @2pass
Audio: AC3 5.1 @448 KB
Sample: yes, included  
http://www.imdb.com/title/tt1579232/

General
Complete name                    : Freerunner.2011.BRRip.XviD.AC3-SAMURAi.avi
Format                           : AVI
Format/Info                      : Audio Video Interleave
File size                        : 1.37 GiB
Duration                         : 1h 27mn
Overall bit rate                 : 2 235 Kbps
Writing application              : Nandub v1.0rc2
Writing library                  : Nandub build 1852/release

Video
ID                               : 0
Format                           : MPEG-4 Visual
Format profile                   : Advanced Simple@L5
Format settings, BVOP            : 2
Format settings, QPel            : No
Format settings, GMC             : No warppoints
Format settings, Matrix          : Default (H.263)
Muxing mode                      : Packed bitstream
Codec ID                         : XVID
Codec ID/Hint                    : XviD
Duration                         : 1h 27mn
Bit rate                         : 1 777 Kbps
Width                            : 720 pixels
Height                           : 304 pixels
Display aspect ratio             : 2.35:1
Frame rate                       : 23.976 fps
Color space                      : YUV
Chroma subsampling               : 4:2:0
Bit depth                        : 8 bits
Scan type                        : Progressive
Compression mode                 : Lossy
Bits/(Pixel*Frame)               : 0.339
Stream size                      : 1.09 GiB (80%)
Writing library                  : XviD 64

Audio
ID                               : 1
Format                           : AC-3
Format/Info                      : Audio Coding 3
Mode extension                   : CM (complete main)
Codec ID                         : 2000
Duration                         : 1h 27mn
Bit rate mode                    : Constant
Bit rate                         : 448 Kbps
Channel(s)                       : 6 channels
Channel positions                : Front: L C R, Side: L R, LFE
Sampling rate                    : 48.0 KHz
Bit depth                        : 16 bits
Compression mode                 : Lossy
Stream size                      : 281 MiB (20%)
Alignment                        : Split accross interleaves
Interleave, duration             : 42 ms (1.00 video frame)
Interleave, preload duration     : 500 ms


Plot
With a ticking bomb locked to his neck, a young freerunner races against the clock and all 
types of baddies to get from one end of the city to the other to save himself and his 
girlfriend.


Screenshots
[img]http://img35.imageshack.us/img35/130/vlcsnap2011100404h36m36.png[/img]
[img]http://img257.imageshack.us/img257/8858/vlcsnap2011100404h38m03.png[/img]
[img]http://img135.imageshack.us/img135/9485/vlcsnap2011100404h38m36.png[/img]
[img]http://img192.imageshack.us/img192/4524/vlcsnap2011100404h39m09.png[/img]


Greetz:
Cm8, Santi, Rx, Noir, Ember, NPW, Unknown, VIP3R, SiC, Flojo, and other
p2p groups come and past!

Contact:
Got any requests or anything to offer?
Contact me at SAMURAi@Hushmail.me